# xmcd
#
# Track frame offsets: 
#        150
#        21393
#        39093
#        57615
#        79603
#        95333
#        119557
#        139349
#        162131
#        177923
#        196823
#        219694
#
# Disc length: 3182 seconds
#
# Revision: 0
# Processed by: cddbd v1.5.2PL0 Copyright (c) Steve Scherf et al.
# Submitted via: ExactAudioCopy v0.99pb4
#
DISCID=a50c6c0c
DTITLE=Bucky Halker - Wisconsin 2.13.63
DYEAR=2006
DGENRE=Blues
TTITLE0=Birdland Symphony
TTITLE1=St. Francis
TTITLE2=Without Saying Goodbye
TTITLE3=Fish On A Line
TTITLE4=Thinkin' 'Boot That Girl
TTITLE5=Gun So Small
TTITLE6=Squirrel In A Cage (Havana, IL)
TTITLE7=Something Better Calls
TTITLE8=40 Hours To A Kiss
TTITLE9=Constantina
TTITLE10=Ugly In That Frown
TTITLE11=Winter Is Leaving
EXTD=
EXTT0=
EXTT1=
EXTT2=
EXTT3=
EXTT4=
EXTT5=
EXTT6=
EXTT7=
EXTT8=
EXTT9=
EXTT10=
EXTT11=
PLAYORDER=
